<?xml version="1.0" encoding="UTF-8"?>
<svg xmlns="http://www.w3.org/2000/svg" viewBox="0 0 200 128">
  <defs>
    <style>
      .cls-1 {
        fill: #f69620;
      }

      .cls-2 {
        fill: #fff;
      }

      .cls-3 {
        fill: #fefeff;
      }

      .cls-4 {
        fill: #4a4c50;
      }
    </style>
  </defs>
  <g id="BG">
    <rect class="cls-2" x="0" y="0" width="200" height="128" rx="4" ry="4"/>
  </g>
  <g id="LOGOS">
    <g>
      <path class="cls-4" d="m90.27,59.63c.3-.26.52-.58.8-.83.56-.52,1.17-.94,1.88-1.24.5-.21.99-.38,1.53-.43.39-.04.76-.03,1.15.06.35.08.69.16,1.01.31.61.28,1.01.75,1.22,1.38.1.3.23.59.3.94.31-.36.58-.73.92-1.04.64-.58,1.32-1.12,2.16-1.39.74-.24,1.51-.41,2.3-.26.5.09,1,.18,1.44.45.69.42,1.09,1.07,1.28,1.83.22.89.21,1.79.02,2.68-.14.63-.25,1.26-.4,1.89-.12.48-.21.97-.3,1.46-.22,1.29-.55,2.56-.76,3.86-.05.29-.14.58-.14.88,0,.22-.12.4-.33.49-.2.09-.4.15-.62.17-.68.07-1.37.04-2.05,0-.37-.02-.58-.25-.52-.62.07-.46.17-.92.26-1.38.13-.67.27-1.34.41-2.01.16-.79.3-1.57.46-2.36.16-.76.35-1.51.44-2.28.05-.39.05-.78-.02-1.17-.12-.61-.45-.83-1.12-.86-.44-.02-.82.19-1.2.4-.8.45-1.29,1.17-1.77,1.91-.33.51-.53,1.06-.75,1.61-.08.19-.12.41-.14.61-.04.4-.22.76-.18,1.17-.23.31-.04.72-.27,1.04-.07.1.03.32-.04.42-.2.32-.03.72-.26,1.04-.07.1,0,.29-.03.43-.15.52-.2,1.07-.36,1.59-.06.2-.27.29-.47.36-.47.16-.96.14-1.45.14-.37,0-.75,0-1.12-.1-.39-.11-.48-.21-.41-.59.1-.59.21-1.18.33-1.77.13-.67.27-1.34.41-2.01.19-.93.39-1.85.56-2.79.13-.68.35-1.34.32-2.04,0-.26-.05-.5-.14-.75-.18-.47-.42-.66-.92-.68-.64-.03-1.16.24-1.65.61-.73.55-1.23,1.28-1.67,2.07-.26.46-.42.96-.58,1.46-.15.5-.22,1.02-.33,1.53-.14.69-.3,1.37-.42,2.07-.12.71-.31,1.4-.39,2.11-.05.49-.39.8-.9.84-.68.06-1.37.05-2.05,0-.11,0-.21-.06-.31-.09-.25-.07-.31-.17-.29-.43.02-.4.13-.78.2-1.17.13-.67.27-1.34.41-2.01.16-.81.34-1.62.49-2.43.16-.9.39-1.79.55-2.69.19-1.04.42-2.07.63-3.11.05-.26.13-.52.15-.78.04-.5.35-.69.77-.76.56-.09,1.12-.1,1.68-.01.54.09.66.34.48.87-.06.17-.08.36-.1.55-.02.18-.01.37-.11.53-.06.1.04.2,0,.3Z"/>
      <path class="cls-1" d="m141.92,64.93c-.43,0-.86,0-1.28,0-.18,0-.24.05-.28.23-.35,1.76-.71,3.52-1.06,5.27-.14.69-.32.86-1.04.93-.65.06-1.3.06-1.94.01-.18-.01-.36-.06-.54-.12-.29-.11-.36-.24-.3-.54.22-1.11.45-2.22.68-3.33.26-1.3.52-2.61.78-3.91.09-.46.18-.91.27-1.37.1-.47.22-.93.27-1.4.04-.4.26-.77.19-1.19.21-.27.13-.61.23-.91.13-.39.19-.81.22-1.21.01-.14.11-.23.11-.36.01-.26.07-.51.14-.76.07-.23.08-.48.14-.72.11-.48.15-.98.26-1.46.09-.38.26-.71.67-.92.44-.22.87-.28,1.34-.27,1.46,0,2.91,0,4.37.02.95.02,1.89.17,2.79.51,1.22.46,2.11,1.26,2.49,2.54.2.66.25,1.33.19,2.02-.08.94-.29,1.85-.69,2.7-.68,1.44-1.71,2.56-3.15,3.29-1.53.78-3.17,1-4.87.96Zm1.65-9.09v-.02c-.35,0-.71,0-1.06,0-.29,0-.31,0-.36.29-.07.43-.18.85-.25,1.28-.16.91-.36,1.82-.54,2.72-.11.54-.21,1.07-.32,1.61-.02.13-.07.27.16.27.71,0,1.42.03,2.13-.02.87-.07,1.65-.41,2.23-1.06.85-.95,1.19-2.09,1.11-3.34-.03-.55-.28-1-.76-1.31-.39-.24-.81-.4-1.27-.42-.35-.01-.71,0-1.06,0Z"/>
      <path class="cls-1" d="m173.39,67.02c.16-.02.18-.15.24-.23,1.29-1.97,2.25-4.1,3.03-6.32.23-.64.42-1.3.64-1.95.07-.2.03-.43.21-.6.11-.1.22-.21.36-.23.93-.16,1.87-.19,2.8-.02.33.06.41.19.41.54,0,.32-.11.62-.21.92-.72,1.96-1.5,3.89-2.44,5.76-1.16,2.3-2.52,4.49-4.03,6.58-1.86,2.58-3.7,5.16-5.53,7.75-.34.48-.79.7-1.31.77-.79.11-1.58.15-2.38.01-.12-.02-.24-.05-.35-.09-.29-.12-.37-.36-.21-.63.18-.3.41-.56.62-.84.21-.27.43-.54.61-.84.16-.25.36-.48.55-.72.35-.45.65-.93,1-1.37.78-.99,1.54-2.01,2.3-3.01.25-.33.49-.67.74-1,.11-.15.15-.29.12-.47-.19-1.08-.38-2.16-.57-3.24-.12-.72-.24-1.43-.37-2.15-.23-1.37-.44-2.73-.71-4.09-.08-.4-.08-.82-.2-1.21-.16-.49-.13-1-.25-1.5-.05-.23-.05-.46-.03-.69.03-.23.15-.38.37-.44.2-.06.4-.11.61-.12.64-.04,1.27-.03,1.91,0,.51.02.69.18.77.7.15,1.01.3,2.03.45,3.04.21,1.42.42,2.85.62,4.27.06.42.12.84.19,1.26,0,.06.02.11.04.17Z"/>
      <path class="cls-1" d="m160.09,69.2c-.54.69-1.18,1.28-1.95,1.69-1.08.58-2.22.88-3.46.68-1.31-.2-2.21-.94-2.7-2.14-.48-1.18-.51-2.42-.41-3.68.06-.67.19-1.32.33-1.97.18-.88.5-1.71.9-2.52.27-.56.57-1.09.98-1.56.22-.26.4-.55.65-.78,1.24-1.13,2.7-1.72,4.39-1.63,1.18.06,2.2.53,3,1.42.13.14.25.29.41.47.07-.38.16-.7.19-1.02.03-.3.19-.43.44-.5.44-.13.9-.12,1.35-.12.33,0,.66.02.98.1.33.07.44.21.38.54-.15.77-.32,1.55-.48,2.32-.13.62-.24,1.24-.36,1.86-.55,2.75-1.1,5.5-1.65,8.24-.1.48-.32.68-.86.73-.54.05-1.08.05-1.61.02-.05,0-.1,0-.15-.02-.51-.1-.61-.25-.51-.76.08-.44.22-.88.24-1.33.03-.05.06-.11,0-.15-.03-.02-.06.04-.08.08Zm-4.88-2.82c-.02.24.05.54.07.85.04.78.77,1.45,1.61,1.33.29-.04.57-.1.84-.22.44-.2.81-.49,1.15-.82.97-.95,1.58-2.1,1.9-3.41.15-.64.26-1.29.41-1.93.04-.17,0-.3-.09-.44-.41-.62-.96-1.04-1.68-1.23-.68-.18-1.33-.1-1.93.29-.57.37-.98.88-1.28,1.48-.64,1.27-.96,2.63-1,4.11Z"/>
      <path class="cls-4" d="m119.66,58.94c.06-.33.15-.58.15-.85,0-.34.13-.53.45-.61.73-.19,1.47-.19,2.22-.07.11.02.21.04.31.11.14.09.2.2.17.37-.29,1.39-.59,2.77-.87,4.16-.26,1.28-.49,2.57-.74,3.85-.28,1.4-.58,2.79-.87,4.19-.11.55-.2.66-.73.74-.61.09-1.22.08-1.83.02-.04,0-.07-.01-.11-.02-.49-.14-.5-.24-.4-.68.11-.47.16-.94.26-1.4-.13-.03-.14.06-.18.11-1.18,1.45-2.69,2.26-4.59,2.27-1.16,0-2.13-.43-2.84-1.37-.44-.59-.64-1.27-.76-1.98-.17-1.03-.11-2.07.01-3.1.08-.72.25-1.43.46-2.12.13-.43.33-.83.5-1.25.22-.52.51-1,.83-1.46.64-.94,1.41-1.73,2.46-2.2,1.5-.67,3.02-.79,4.54-.04.49.24.9.58,1.25.99.09.1.17.2.3.35Zm-6.83,7.08c0,.18-.02.45.04.71.04.17.07.34.12.5.19.55.63.87,1.22.9.5.03.94-.14,1.35-.39.73-.42,1.26-1.03,1.72-1.72.41-.62.75-1.29.89-2.02.13-.65.32-1.28.44-1.92.07-.34.07-.62-.21-.85-.04-.04-.07-.1-.11-.15-.98-1.19-2.68-1.36-3.79-.18-.59.63-.97,1.38-1.23,2.17-.3.92-.48,1.88-.46,2.95Z"/>
      <path class="cls-4" d="m62.14,68.56c-.35.4-.64.74-.97,1.05-.42.39-.91.68-1.41.95-.92.49-1.91.66-2.95.53-1.13-.14-1.97-.7-2.54-1.68-.37-.63-.51-1.32-.59-2.04-.11-1-.01-1.99.12-2.99.11-.84.35-1.64.65-2.42.43-1.11,1-2.16,1.85-3.04,1.1-1.14,2.43-1.79,4.02-1.84,1.42-.04,2.6.48,3.53,1.56.07.08.11.19.25.23.07-.31.15-.61.2-.91.05-.3.23-.47.49-.52.74-.16,1.48-.18,2.22-.01.35.08.42.19.35.55-.1.56-.24,1.11-.34,1.67-.06.33-.17.65-.18.99,0,.27-.11.52-.17.78-.08.38-.11.76-.23,1.13-.09.27-.13.56-.18.84-.11.68-.24,1.35-.4,2.01-.17.7-.27,1.42-.47,2.11-.15.51-.23,1.05-.32,1.58-.07.41-.19.81-.23,1.23-.01.13-.1.24-.23.3-.2.11-.41.2-.65.21-.5.04-1,.05-1.5,0-.62-.06-.75-.22-.63-.82.08-.4.18-.8.27-1.2.01-.06.01-.12.02-.27Zm-3.52-.43c.45,0,.89-.08,1.28-.32.49-.3.91-.67,1.29-1.11.71-.84,1.18-1.79,1.46-2.84.15-.55.2-1.12.38-1.66.17-.54-.04-.91-.41-1.25-.05-.05-.11-.1-.16-.15-.54-.54-1.21-.72-1.95-.68-.7.04-1.24.41-1.68.92-.67.78-1.01,1.72-1.3,2.69-.1.33-.11.67-.18,1-.08.34-.07.68-.08,1.02-.02.38,0,.76.04,1.14.08.77.57,1.23,1.31,1.24Z"/>
      <path class="cls-4" d="m77.97,68.65c-.23.3-.46.6-.74.85-1.13,1.02-2.42,1.63-3.97,1.62-1.51,0-2.62-.67-3.27-2.05-.27-.58-.38-1.19-.44-1.82-.04-.44-.03-.88-.03-1.32,0-.54.08-1.07.17-1.6.27-1.62.89-3.28,1.8-4.57.81-1.14,1.83-1.99,3.18-2.4.68-.2,1.36-.33,2.07-.26,1.19.13,2.17.67,2.96,1.57.03.04.05.09.08.12.11.11.2.09.23-.05.04-.15.07-.31.09-.46.09-.73.19-.72.84-.88.56-.14,1.14-.09,1.72-.02.19.02.33.14.49.22.17.09.14.26.08.39-.2.44-.22.92-.33,1.39-.18.81-.34,1.63-.5,2.45-.09.49-.19.98-.26,1.48-.07.53-.2,1.06-.31,1.59-.16.79-.31,1.58-.47,2.36-.16.8-.32,1.6-.48,2.4-.04.18-.09.35-.1.53-.02.34-.22.51-.51.58-.43.11-.87.13-1.31.11-.28,0-.56,0-.84-.07-.4-.1-.49-.22-.41-.62.09-.46.18-.92.27-1.38,0-.05.02-.09-.04-.16Zm-4.81-2.75c0,.28-.02.56.04.84.03.15.06.31.11.46.17.49.55.93,1.25.93.65,0,1.19-.25,1.69-.63,1.24-.94,1.95-2.22,2.32-3.7.16-.65.29-1.32.43-1.98.02-.11.03-.21-.04-.31-.44-.65-.97-1.19-1.78-1.35-.68-.14-1.32-.08-1.93.34-.5.35-.85.82-1.14,1.34-.44.79-.7,1.64-.82,2.53-.07.51-.16,1.01-.14,1.53Z"/>
      <path class="cls-4" d="m33.46,46.79c.3.4.59.79.89,1.18.93,1.26,1.86,2.52,2.8,3.78.77,1.04,1.55,2.07,2.32,3.11.15.2.32.36.53.49,3.12,1.9,6.24,3.81,9.36,5.72.09.06.2.1.27.2-.05.11-.15.04-.22.04-5.02,0-10.04.01-15.05.01-.51,0-.52,0-.54-.49-.04-1.44-.07-2.88-.11-4.32-.04-1.48-.09-2.95-.13-4.43,0-.28,0-.56-.01-.84-.04-1.41-.09-2.82-.13-4.23,0-.07-.04-.14.04-.21Z"/>
      <path class="cls-1" d="m20.81,76.34c.12-.28.37-.33.55-.45.84-.55,1.67-1.1,2.52-1.62,2.87-1.74,5.67-3.61,8.5-5.4.24-.15.24-.16.38.08,1.13,1.97,2.25,3.94,3.38,5.91.83,1.46,1.68,2.91,2.51,4.37.28.48.56.97.84,1.45.02.04.05.08.07.13.02.04.03.1-.02.13-.03.02-.06.02-.1,0-.11-.05-.23-.08-.33-.14-2.69-1.34-5.39-2.67-8.07-4.04-.29-.15-.56-.19-.86-.2-1.55-.02-3.11-.03-4.66-.09-1.09-.04-2.18-.06-3.27-.05-.48,0-.95-.04-1.45-.08Z"/>
      <path class="cls-1" d="m16,56.32c.59-.15,1.14-.29,1.7-.43,2.22-.56,4.44-1.12,6.66-1.68.07-.02.14-.05.21-.06.59-.03.93-.45,1.26-.86.17-.21.34-.41.55-.57.07-.05.13-.11.18-.18.23-.29.49-.54.74-.8.37-.4.72-.83,1.1-1.22.58-.59,1.15-1.18,1.71-1.78.26-.27.53-.54.78-.82.25-.28.51-.55.75-.85.09-.12.2-.2.37-.28-.15.75-.29,1.46-.44,2.17-.18.87-.37,1.73-.56,2.59-.26,1.24-.51,2.48-.78,3.72-.41,1.92-.82,3.84-1.23,5.76,0,.04-.01.07-.02.11-.02.16-.09.16-.23.11-1.22-.51-2.46-.96-3.7-1.43-2.95-1.12-5.9-2.24-8.85-3.36-.07-.03-.14-.04-.22-.15Z"/>
      <path class="cls-4" d="m16.09,57.64c.9.54,1.76,1.14,2.64,1.72,3.23,2.14,6.46,4.28,9.69,6.42.07.05.14.09.24.17-3,3.29-5.98,6.56-9.02,9.88-.03-.25,0-.4.02-.55.11-1.31.21-2.63.32-3.94.14-1.68.27-3.36.42-5.03.02-.24-.03-.45-.14-.66-1.31-2.46-2.61-4.91-3.92-7.37-.1-.19-.2-.39-.3-.59.02-.02.04-.04.06-.05Z"/>
      <path class="cls-1" d="m48.69,62.79c-1.16,1.23-2.28,2.41-3.4,3.59-.83.88-1.67,1.75-2.51,2.62-.23.24-.39.49-.44.85-.19,1.62-.42,3.24-.63,4.86-.19,1.41-.38,2.83-.57,4.24-.02.15-.03.31-.05.54-.21-.37-.32-.7-.43-1.03-.48-1.43-.98-2.84-1.44-4.28-.95-2.96-1.99-5.89-2.99-8.83-.02-.05-.03-.09-.05-.14-.09-.28-.09-.28.18-.32,1.17-.19,2.33-.4,3.5-.59.72-.12,1.44-.26,2.16-.38,1.12-.2,2.23-.41,3.36-.58.84-.13,1.67-.33,2.52-.42.25-.03.49-.14.79-.13Z"/>
      <path class="cls-4" d="m129.98,59.64c.32-.6.77-1.04,1.22-1.48.41-.41.89-.69,1.43-.88.69-.25,1.38-.24,2.07,0,.39.13.44.21.4.61-.08.81-.23,1.6-.53,2.36-.17.41-.3.47-.73.38-.32-.07-.61-.21-.95-.2-.34.01-.65.09-.93.28-.77.5-1.31,1.19-1.77,1.97-.48.81-.72,1.71-.89,2.62-.15.8-.33,1.6-.49,2.4-.16.81-.33,1.62-.47,2.44-.09.54-.33.62-.87.71-.69.1-1.39.08-2.09,0-.06,0-.11-.03-.17-.05-.43-.13-.47-.16-.41-.57.1-.6.22-1.2.33-1.8.13-.68.28-1.36.41-2.04.16-.78.31-1.57.46-2.35.14-.69.28-1.38.42-2.07.1-.51.22-1.03.3-1.55.07-.51.18-1.01.28-1.51.05-.29.1-.59.16-.88.06-.29.34-.53.64-.59.56-.12,1.11-.12,1.68-.08.07,0,.15.01.22.02.51.09.61.23.5.75-.08.4-.16.81-.24,1.21-.02.08-.05.16.03.3Z"/>
      <path class="cls-4" d="m63.86,79.47c.07-.44.12-.87.21-1.29.12-.52.18-1.05.3-1.56.02-.07.02-.15.02-.22,0-.16-.01-.33-.18-.41-.17-.08-.34-.04-.47.1-.28.27-.49.59-.57.98-.12.57-.25,1.15-.36,1.73-.03.17-.04.34-.06.5-.03.15-.07.22-.23.21-.12,0-.24,0-.38,0,.03-.26.05-.49.09-.71.13-.65.26-1.3.39-1.96.04-.18.06-.36.04-.55-.03-.32-.28-.44-.55-.26-.23.15-.38.38-.5.62-.14.27-.23.58-.26.87-.07.61-.28,1.2-.32,1.81,0,.12-.06.18-.18.17-.14,0-.29.02-.44-.03.05-.57.16-1.11.28-1.65.06-.31.14-.61.13-.93,0-.19.15-.32.15-.52,0-.25.06-.51.1-.76.03-.17.11-.19.41-.17.17.01.17.1.15.22,0,.08-.04.17.03.28.11-.11.23-.21.33-.32.15-.16.36-.21.56-.22.28-.03.5.08.64.34.04.07.03.17.11.22.13,0,.16-.11.22-.17.18-.19.4-.32.66-.37.44-.09.77.15.83.6.04.31-.02.6-.08.9-.13.73-.27,1.47-.4,2.2-.07.4-.08.4-.49.38-.05,0-.09-.02-.17-.03Z"/>
      <path class="cls-4" d="m77.99,78.42c.37-.92.8-1.78,1.17-2.68.12-.3.19-.31.5-.3.13,0,.17.05.17.18,0,.13,0,.27,0,.4-.01.8.11,1.6.06,2.46.17-.19.15-.39.22-.55.22-.55.43-1.1.64-1.65.06-.16.13-.33.2-.49.12-.31.19-.35.5-.35.07,0,.14,0,.24.01-.08.38-.23.71-.4,1.04-.2.41-.37.83-.55,1.25-.23.54-.49,1.07-.69,1.62-.08.22-.29.12-.45.13-.15,0-.13-.11-.14-.21-.07-.83-.09-1.66-.09-2.49,0-.07,0-.14,0-.23-.14.12-.2.27-.24.39-.26.79-.66,1.52-.96,2.3-.03.09-.04.21-.16.23-.14.03-.3.05-.43,0-.11-.04-.07-.17-.07-.26-.04-.71-.07-1.41-.1-2.12-.02-.45-.05-.9-.07-1.35-.01-.3-.01-.3.3-.29.35,0,.35,0,.35.34,0,.83,0,1.66,0,2.49,0,.05,0,.1,0,.14Z"/>
      <path class="cls-4" d="m101.84,79.03c-.2.16-.32.29-.47.37-.6.35-1.11.07-1.24-.69-.07-.44-.02-.89.08-1.32.16-.71.43-1.38,1.1-1.76.5-.29,1.04-.31,1.58-.1.08.03.1.08.1.19.02.41-.15.78-.2,1.17-.09.76-.32,1.5-.42,2.26-.06.47-.2.92-.43,1.34-.28.51-.91.78-1.54.67-.11-.02-.22-.04-.32-.08-.09-.04-.21-.04-.21-.2,0-.16.1-.24.19-.33.04-.04.08.01.13.02.13.03.24.1.38.1.55,0,.77-.09,1.04-.81.09-.24.13-.49.21-.82Zm-1.1-.79c0,.11.03.24.03.38,0,.18.08.3.24.37.16.07.31.02.44-.09.2-.17.33-.39.42-.63.24-.66.29-1.36.45-2.03.05-.22-.01-.28-.25-.28-.36,0-.61.2-.81.48-.38.54-.49,1.15-.53,1.81Z"/>
      <path class="cls-4" d="m183.19,51.09c-.12.49-.24.97-.35,1.46-.02.08-.05.16-.07.24-.03.1,0,.24-.13.28-.14.04-.29.03-.43-.02-.09-.03-.09-.09-.1-.17-.08-.38-.18-.75-.27-1.12-.05-.2.01-.44-.17-.65-.03.53-.05,1.03-.08,1.52,0,.09,0,.17,0,.26-.02.24-.05.27-.29.27-.36.01-.36.01-.33-.36.08-.97.14-1.95.22-2.92.03-.38.04-.38.43-.37.01,0,.02,0,.04,0,.29,0,.3,0,.36.29.1.45.2.9.3,1.35.05.22.1.45.16.68.1-.06.11-.15.11-.22-.04-.41.18-.77.21-1.17.02-.24.13-.48.12-.73,0-.11.09-.14.16-.18.03-.02.07-.02.11-.02.55-.07.59-.04.62.51.05.94.12,1.87.18,2.81,0,.11.08.27-.09.31-.16.04-.34.05-.5-.03-.09-.05-.05-.15-.05-.24-.03-.56-.05-1.12-.08-1.68,0-.04.02-.1-.07-.12Z"/>
      <path class="cls-4" d="m67.73,79.51c-.12.37-.16.75-.23,1.13q-.09.53-.7.44c.12-.34.07-.7.18-1.05.08-.25.09-.54.13-.8.04-.3.17-.57.2-.87.02-.2,0-.4.07-.61.12-.4.25-.8.28-1.23.02-.28.13-.54.08-.83-.02-.09.05-.26.24-.24.12.02.24,0,.34,0,.1.13,0,.26.08.39.22-.2.46-.37.77-.42.41-.07.68.08.83.48.12.33.1.68.07,1.01-.05.6-.19,1.17-.5,1.7-.01.02-.02.04-.03.06-.44.76-.94.99-1.8.83Zm1.74-2.9c0-.1-.02-.23-.06-.36-.1-.3-.33-.38-.6-.2-.15.1-.25.23-.34.38-.14.23-.23.48-.31.74-.12.37-.14.76-.22,1.14-.03.15-.07.3-.08.46-.02.19.08.27.24.3.25.04.46-.05.63-.22.12-.11.21-.24.28-.38.26-.58.42-1.18.46-1.85Z"/>
      <path class="cls-4" d="m130.92,73.75c0,.35-.09.69-.16,1.02-.06.33-.11.66-.18,1.02.15-.01.21-.13.3-.19.58-.41,1.2-.17,1.33.53.06.33.04.66,0,.98-.06.38-.17.74-.31,1.1-.15.41-.39.76-.73,1.03-.38.31-.82.37-1.28.31-.23-.03-.45-.34-.46-.64-.02-.39.02-.77.1-1.15.11-.47.25-.94.28-1.43,0-.19.1-.37.14-.55.14-.62.27-1.25.36-1.88.02-.12.07-.18.18-.18.14,0,.29-.03.43.02Zm.71,3.03c0-.12,0-.22-.02-.31-.04-.19-.06-.4-.28-.48-.23-.08-.4.05-.56.19-.22.21-.33.48-.4.77-.09.38-.15.76-.24,1.14-.05.19-.07.38-.06.58.01.36.24.5.57.35.23-.11.38-.3.5-.51.3-.54.44-1.13.49-1.72Z"/>
      <path class="cls-4" d="m109.17,78.52c.16-.19.18-.38.24-.55.22-.59.43-1.18.65-1.78.07-.19.1-.39.2-.57.05-.1.07-.17.18-.16.17,0,.34-.03.52.03-.19.47-.38.93-.57,1.39-.28.68-.54,1.36-.83,2.03-.32.74-.67,1.47-1.32,2-.06.05-.12.09-.18.13-.38.27-.48.24-.66-.18-.05-.13.06-.19.13-.22.24-.12.43-.29.63-.47.23-.21.34-.49.51-.74.07-.1.03-.24.01-.36-.1-.66-.13-1.33-.21-2-.05-.46-.09-.94-.12-1.41-.01-.16.03-.21.2-.21.42,0,.43,0,.45.42.04.8.09,1.61.13,2.41,0,.06.01.12.03.24Z"/>
      <path class="cls-4" d="m146.77,79.46c-.04-.21.04-.4.08-.6.1-.56.2-1.12.3-1.68.09-.52.22-1.04.27-1.57,0-.11.06-.16.16-.15.13,0,.27-.03.39.04.07.14-.07.29.02.43.12,0,.15-.11.22-.17.17-.15.35-.26.57-.31.51-.12.87.13.93.65.04.33-.04.66-.1.98-.14.76-.33,1.5-.42,2.27-.01.12-.06.18-.18.17-.04,0-.07,0-.11,0-.38,0-.38,0-.3-.37.15-.74.29-1.49.42-2.23.03-.19.04-.39.03-.58-.01-.32-.25-.44-.54-.3-.16.08-.27.2-.37.35-.17.25-.29.51-.35.8-.12.66-.31,1.31-.38,1.99-.04.39-.11.42-.65.32Z"/>
      <path class="cls-4" d="m96.19,76.02c.19-.4.49-.53.82-.6.46-.09.69.08.83.53.11.32.06.63-.01.93-.15.64-.26,1.29-.37,1.94-.01.07-.04.14-.06.21-.04.15.06.35-.09.44-.16.09-.36.03-.57.02.06-.36.11-.7.17-1.04.11-.6.23-1.21.34-1.81.02-.1.03-.19.02-.29-.02-.38-.29-.51-.61-.3-.31.21-.51.51-.61.88-.2.72-.35,1.45-.45,2.19,0,.02,0,.05-.01.07-.05.1.01.25-.1.29-.15.06-.31.03-.47.01-.05,0-.07-.06-.07-.11,0-.1-.01-.2.01-.29.19-.67.2-1.37.39-2.04.07-.25.12-.51.12-.78,0-.24.16-.45.15-.7,0-.07.05-.11.12-.11.13,0,.27,0,.39,0,.07.18-.01.32.05.56Z"/>
      <path class="cls-4" d="m119.29,79.49c-.06-.15.02-.28-.02-.42-.12-.03-.15.09-.21.15-.21.19-.45.33-.74.35-.44.03-.76-.26-.79-.7-.02-.36.05-.7.1-1.05.1-.63.28-1.24.34-1.87,0-.02,0-.05,0-.07.1-.43.12-.44.69-.41.03.2-.03.4-.08.59-.15.68-.27,1.37-.38,2.06-.03.18-.04.36-.04.55.01.33.27.47.56.3.28-.16.44-.41.56-.7.12-.28.15-.59.21-.88.08-.38.13-.78.21-1.16.04-.2.03-.4.07-.61.03-.15.1-.18.22-.18.07,0,.15,0,.22,0,.26.01.26.01.2.28-.11.56-.22,1.12-.33,1.69-.11.6-.2,1.19-.27,1.8-.03.29-.04.29-.34.29-.07,0-.14-.01-.21-.02Z"/>
      <path class="cls-4" d="m137.39,75.45c-.09.52-.16.99-.26,1.46-.17.75-.28,1.52-.37,2.28-.03.28-.23.4-.5.29-.07-.03-.08-.08-.08-.14,0-.09.04-.19-.03-.31-.09.09-.18.17-.27.25-.21.19-.45.29-.73.28-.37,0-.6-.19-.67-.55-.07-.38-.04-.77.05-1.12.1-.43.15-.87.26-1.31.07-.29.16-.58.16-.89,0-.16.1-.27.29-.24.07,0,.15,0,.22,0,.13,0,.17.07.14.19-.09.37-.15.75-.23,1.12-.06.31-.09.62-.16.92-.07.31-.13.61-.12.93,0,.1,0,.2.06.28.09.13.24.18.42.12.2-.07.35-.22.47-.4.21-.31.3-.66.37-1.02.11-.6.21-1.21.33-1.81.06-.33.07-.33.4-.33.07,0,.14,0,.27,0Z"/>
      <path class="cls-4" d="m72.26,78.16c0-.72.2-1.37.56-1.98.24-.39.56-.68,1.03-.76.54-.09.98.21,1.07.75.15.9-.02,1.74-.43,2.54-.13.26-.32.49-.57.66-.52.36-1.1.27-1.49-.22-.12-.15-.11-.34-.14-.51-.04-.15-.02-.32-.03-.47Zm.61,0c0,.2,0,.39.07.58.12.34.41.43.69.21.18-.14.3-.32.38-.53.21-.53.32-1.09.37-1.66.02-.18,0-.37-.07-.54-.1-.29-.34-.38-.61-.23-.19.11-.3.28-.4.46-.3.53-.39,1.11-.43,1.7Z"/>
      <path class="cls-4" d="m115.33,76.79c-.02.72-.19,1.41-.55,2.04-.31.52-.75.82-1.39.74-.1-.01-.18-.04-.26-.1-.26-.2-.42-.45-.47-.79-.14-.96.08-1.82.61-2.62.23-.35.55-.58.97-.65.54-.09.93.19,1.01.73.02.11.1.19.08.31-.01.11,0,.22,0,.33Zm-2.1,1.27c.01.18.03.37.03.55,0,.21.12.34.29.42.19.09.36,0,.5-.13.24-.23.37-.52.45-.83.09-.35.15-.71.21-1.06.04-.25.05-.51-.03-.76-.11-.31-.31-.39-.6-.24-.18.09-.3.25-.4.42-.28.51-.43,1.05-.44,1.63Z"/>
      <path class="cls-4" d="m55.92,78.07c-.04-.65.15-1.28.5-1.87.28-.48.68-.8,1.27-.8.46,0,.72.26.79.69.07.38,0,.71-.21,1.01-.25.33-.62.46-1,.55-.15.03-.31.06-.47.06-.19,0-.26.1-.24.28.01.19-.02.39.05.58.13.37.38.52.76.46.09-.02.18-.07.28-.09.11-.02.24-.12.31.05.08.2.04.35-.15.41-.36.11-.72.22-1.1.11-.41-.12-.62-.42-.73-.79-.05-.19-.09-.4-.06-.66Zm2.01-1.68c-.02-.14-.03-.3-.17-.38-.16-.09-.31-.04-.44.06-.32.23-.48.57-.61.92-.07.2-.02.24.19.22.26-.02.5-.1.72-.23.22-.13.29-.35.31-.59Z"/>
      <path class="cls-4" d="m83.29,78.05c.02-.75.28-1.42.72-2.02.2-.28.46-.5.81-.6.56-.16,1.2.02,1.18.88,0,.51-.25.91-.74,1.12-.34.15-.7.21-1.07.21-.18,0-.27.06-.25.25.01.15,0,.29,0,.44.01.45.22.66.67.65.14,0,.26-.04.4-.07.08-.02.17-.12.24.01.07.13.04.37-.06.42-.55.32-1.43.15-1.77-.39-.1-.15-.1-.37-.13-.55-.02-.12,0-.24,0-.37Zm.81-.93c.37.05.68,0,.97-.18.17-.1.27-.24.31-.43.05-.22,0-.43-.15-.52-.14-.09-.36-.06-.53.1-.3.28-.49.62-.6,1.03Z"/>
      <path class="cls-4" d="m151.94,78.25c0-.85.19-1.62.71-2.28.25-.32.57-.53.99-.56.49-.04.76.25.87.72.08.36,0,.65-.18.92-.19.31-.51.47-.87.57-.21.06-.43.1-.65.11-.17,0-.25.08-.24.25.02.26-.05.52.12.77.18.26.41.33.69.3.11-.01.21-.06.32-.09.09-.03.19-.09.26.02.07.12.03.37-.08.42-.39.14-.78.27-1.2.12-.4-.14-.68-.53-.7-.96,0-.11-.02-.22-.03-.3Zm2.01-1.85c0-.38-.27-.57-.57-.38-.37.23-.51.63-.66,1.01-.06.16.04.21.2.19.24-.03.47-.09.69-.22.23-.13.35-.33.35-.6Z"/>
      <path class="cls-4" d="m156.98,79.57c-.2,0-.39-.05-.57-.1-.16-.04-.21-.18-.14-.34.1-.22.15-.24.34-.15.3.14.68.1.88-.1.23-.23.26-.54.1-.88-.07-.15-.18-.26-.29-.37-.36-.34-.57-.72-.54-1.24.02-.32.18-.56.38-.7.36-.25.79-.37,1.25-.24.2.06.24.12.2.31-.03.2-.09.24-.29.22-.06,0-.12-.02-.18-.03-.31-.03-.53.06-.64.31-.12.25-.11.5.07.72.13.15.27.28.4.43.42.44.45.96.23,1.49-.22.51-.68.66-1.19.68Z"/>
      <path class="cls-4" d="m139.9,79.57c-.2,0-.39-.05-.57-.13-.18-.08-.18-.12-.1-.35.06-.15.11-.24.29-.13.1.06.23.08.35.09.63.07.84-.54.7-.92-.07-.2-.2-.36-.35-.51-.15-.15-.3-.29-.4-.48-.34-.66-.15-1.55.79-1.71.26-.04.51-.05.76.03.1.03.2.08.16.2-.04.13-.03.31-.24.3-.1,0-.19-.02-.29-.03-.3-.03-.52.09-.65.37-.12.25-.06.47.11.67.14.16.29.29.43.45.27.31.4.67.33,1.08-.11.67-.61,1.07-1.32,1.06Z"/>
      <path class="cls-4" d="m162.64,76.01c-.19-.03-.36-.06-.53-.07-.24,0-.44.07-.53.32-.09.23-.12.46.06.68.1.12.22.22.33.34.35.36.54.78.44,1.29-.09.49-.37.82-.86.94-.3.07-.59.1-.89,0-.31-.11-.34-.15-.2-.44.03-.05.03-.12.1-.15.19.04.37.15.59.15.4,0,.64-.23.65-.63,0-.26-.07-.48-.25-.66-.16-.16-.3-.32-.45-.49-.33-.39-.24-1.27.15-1.59.3-.24,1.03-.37,1.39-.21.11.05.14.12.1.23-.04.09-.06.18-.1.3Z"/>
      <path class="cls-4" d="m179.52,49.52c.27,0,.54,0,.81,0,.16,0,.23.06.22.22,0,.07,0,.15,0,.22.02.19-.07.27-.25.25-.04,0-.07,0-.11,0-.27,0-.28,0-.28.29,0,.79,0,1.58,0,2.38,0,.32,0,.32-.32.32-.02,0-.05,0-.07,0-.32,0-.33,0-.33-.32,0-.73,0-1.46,0-2.19,0-.06,0-.12,0-.18q0-.28-.28-.28c-.06,0-.12,0-.18,0-.15.01-.2-.06-.19-.2,0-.01,0-.02,0-.04-.01-.55,0-.44.42-.45.2,0,.39,0,.59,0h0Z"/>
      <path class="cls-4" d="m123.64,76.01c.1-.03.12-.12.18-.18.1-.11.2-.22.32-.29.16-.09.35-.22.51-.11.13.09-.03.29-.02.44,0,.09-.04.15-.15.17-.43.07-.67.38-.85.73-.21.4-.29.84-.36,1.28-.07.43-.16.86-.23,1.29-.02.1-.06.16-.16.15-.14,0-.29.03-.44-.04-.02-.45.15-.87.2-1.31.05-.47.21-.91.27-1.38.05-.38.14-.76.17-1.15,0-.14.07-.19.21-.18.07,0,.15,0,.22,0,.11,0,.15.06.14.16-.01.13-.05.26,0,.39Z"/>
      <path class="cls-4" d="m89.01,76.03c.1,0,.14-.07.17-.13.11-.32.41-.39.68-.48.22-.07.29.02.22.25-.06.2-.1.4-.38.44-.21.03-.35.21-.48.38-.29.37-.41.81-.49,1.27-.09.51-.17,1.02-.27,1.53-.01.08,0,.19-.12.2-.16.02-.32.04-.47-.02-.05-.02-.04-.08-.03-.13.03-.17-.04-.36.09-.52.09-.11.02-.25.04-.37.08-.38.16-.77.24-1.15.1-.55.21-1.09.27-1.64.02-.2.06-.2.34-.2.17,0,.21.08.2.23,0,.12-.02.23-.02.35Z"/>
      <path class="cls-4" d="m93.01,75.5c0,.37-.13.72-.19,1.09-.1.58-.22,1.15-.33,1.72-.06.34-.17.68-.17,1.03,0,.13-.07.17-.19.17-.14,0-.29,0-.47,0,.09-.32.09-.62.16-.91.15-.64.24-1.3.38-1.95.06-.29.05-.59.12-.88.07-.26.08-.3.35-.3.11,0,.22-.03.34.05Z"/>
      <path class="cls-4" d="m143.46,79.46c.09-.26.08-.54.14-.81.17-.81.3-1.63.46-2.44.03-.14.08-.28.11-.42.07-.34.07-.34.38-.33.23,0,.28.06.23.29-.05.27-.11.54-.16.81-.13.72-.28,1.44-.42,2.16-.02.11-.06.21-.08.31-.12.57-.02.51-.66.44Z"/>
      <path class="cls-4" d="m145.11,74.39c0,.26-.18.47-.41.47-.2,0-.34-.15-.33-.39,0-.26.2-.46.41-.45.17.01.33.18.33.37Z"/>
      <path class="cls-4" d="m93.32,74.38c0,.24-.18.46-.4.48-.19.01-.32-.13-.34-.35-.02-.26.14-.47.37-.49.18-.01.37.16.37.36Z"/>
      <path class="cls-4" d="m16.03,57.69s-.05-.06-.02-.09c.03-.03.06,0,.08.03-.02.02-.04.04-.06.05Z"/>
      <path class="cls-3" d="m160.09,69.2s.05-.1.08-.08c.05.04.02.1,0,.15-.02-.02-.05-.04-.07-.06Z"/>
    </g>
  </g>
</svg>
